<svg width="1089" height="196" viewBox="0 0 1089 196" fill="none" xmlns="http://www.w3.org/2000/svg">
<path d="M1032.69 20V116.305L928 20V58.6222L1058 178V20H1032.69Z" fill="#FF0000"/>
<path fill-rule="evenodd" clip-rule="evenodd" d="M839 178C882.631 178 918 142.63 918 99C918 55.3695 882.631 20 839 20C795.369 20 760 55.3695 760 99C760 142.63 795.369 178 839 178ZM893 99.5C893 129.047 869.047 153 839.5 153C809.953 153 786 129.047 786 99.5C786 69.9528 809.953 46 839.5 46C869.047 46 893 69.9528 893 99.5Z" fill="#FF0000"/>
<path d="M620 19.4938L635.36 44.675L698.391 45.1688C707.377 47.9257 711.569 50.2843 716.93 56.525C720.185 61.8804 720.906 65.0467 721.167 70.8438C721.191 77.8152 720.073 81.0528 716.93 86.15C711.457 93.1505 707.307 95.637 698.391 98H668.2L717.129 177H748.71L714.46 121.7C724.37 116.563 728.971 113.27 735.998 106.888C742.542 99.6009 744.733 94.8431 748.181 86.15C749.987 77.4877 750.294 72.7416 749.77 64.425C748.022 54.9059 745.918 50.9078 741.825 44.1813C736.744 36.8663 733.146 33.1887 725.405 27.3938C716.856 22.2845 711.567 20.6211 701.57 19L620 19.4938Z" fill="white"/>
<path d="M480 86.1625L480 111.344H610V86.1625H480Z" fill="white"/>
<path d="M481.227 20H610V45.675H511.887L481.227 20Z" fill="white"/>
<path d="M480.613 178H609.387V152.325H511.273L480.613 178Z" fill="white"/>
<path d="M341.461 20.4922L365.806 45.595H426.668C433.292 47.707 435.628 49.3176 438.841 52.486C442.23 56.4217 443.526 60.1466 443.71 64.2991C443.438 73.6559 439.282 78.0006 438.841 78.5732C438.399 79.1458 431.893 85.2005 426.668 85.9564H340V111.059H426.668C432.536 112.908 435.318 114.58 438.841 117.95C442.676 122.673 443.68 125.503 444.197 130.748C444.007 137.194 442.738 140.273 438.841 145.022C434.57 149.089 431.871 150.391 426.668 151.421H366.293V178L426.668 177.016C435.881 176.199 440.816 174.626 449.066 169.14C455.256 164.697 458.535 161.942 463.186 155.358C466.596 148.818 467.918 145.251 469.029 139.115C469.928 132.331 470.077 128.476 469.029 121.396C466.52 113.476 465.335 111.504 463.186 107.614C460.546 103.703 458.912 101.84 455.882 98.7539C459.432 94.9443 461.287 92.7101 464.16 88.4174C467.45 81.4754 468.34 77.3683 469.516 71.6822C470.242 65.3276 470.207 61.7709 469.029 55.4393C467.152 49.1446 465.707 45.7836 462.212 40.1807C458.982 35.3517 456.431 32.6584 451.013 27.8754C446.837 25.178 445.58 24.0445 440.301 22.4611C436.392 21.1795 432.112 20.6991 426.668 20L341.461 20.4922Z" fill="white"/>
<path fill-rule="evenodd" clip-rule="evenodd" d="M251 178C294.631 178 330 142.63 330 99C330 55.3695 294.631 20 251 20C207.369 20 172 55.3695 172 99C172 142.63 207.369 178 251 178ZM305 99.5C305 129.047 281.047 153 251.5 153C221.953 153 198 129.047 198 99.5C198 69.9528 221.953 46 251.5 46C281.047 46 305 69.9528 305 99.5Z" fill="white"/>
<path d="M32 19.4938L47.3605 44.675L110.391 45.1688C119.377 47.9257 123.569 50.2843 128.93 56.525C132.185 61.8804 132.906 65.0467 133.167 70.8438C133.191 77.8152 132.073 81.0528 128.93 86.15C123.457 93.1505 119.307 95.637 110.391 98H80.2002L129.129 177H160.71L126.46 121.7C136.37 116.563 140.971 113.27 147.998 106.888C154.542 99.6009 156.733 94.8431 160.181 86.15C161.987 77.4877 162.294 72.7416 161.77 64.425C160.022 54.9059 157.918 50.9078 153.825 44.1813C148.744 36.8663 145.146 33.1887 137.405 27.3938C128.856 22.2845 123.567 20.6211 113.57 19L32 19.4938Z" fill="white"/>
</svg>
